<svg width="172" height="53" viewBox="0 0 172 53" fill="none" xmlns="http://www.w3.org/2000/svg">
<path d="M24.2783 7.55127C28.0937 7.55127 31.6357 8.72082 34.5664 10.7202L28.8105 20.0366C27.5723 18.99 25.996 18.3618 24.2783 18.3618C20.2981 18.3618 17.0713 21.729 17.0713 25.8823C17.0714 30.0355 20.2982 33.4018 24.2783 33.4019C28.2585 33.4019 31.4852 30.0355 31.4854 25.8823C31.4854 25.84 31.4821 25.7975 31.4814 25.7554L42.5332 24.8999C42.5486 25.2078 42.5566 25.5178 42.5566 25.8296C42.5566 35.9244 34.3731 44.1079 24.2783 44.1079C14.1835 44.1079 6.00001 35.9244 6 25.8296C6 15.7348 14.1835 7.55127 24.2783 7.55127Z" fill="white"/>
<path d="M67.6193 32.0964V33.2809C67.6193 35.1534 67.0609 36.665 65.9442 37.8156C64.8274 38.9662 63.3271 39.5415 61.4433 39.5415C59.5708 39.5415 58.0705 38.9662 56.9425 37.8156C55.8257 36.665 55.2673 35.1534 55.2673 33.2809V19.3384C55.2673 17.4546 55.8257 15.943 56.9425 14.8037C58.0705 13.6531 59.5708 13.0778 61.4433 13.0778C63.3271 13.0778 64.8274 13.6531 65.9442 14.8037C67.0609 15.943 67.6193 17.4546 67.6193 19.3384V20.5228H63.7276V19.3384C63.7276 18.6277 63.5245 18.0581 63.1185 17.6294C62.7124 17.1895 62.154 16.9695 61.4433 16.9695C60.7327 16.9695 60.1743 17.1895 59.7682 17.6294C59.3621 18.0581 59.1591 18.6277 59.1591 19.3384V33.2809C59.1591 33.9915 59.3621 34.5668 59.7682 35.0068C60.1743 35.4354 60.7327 35.6497 61.4433 35.6497C62.154 35.6497 62.7124 35.4354 63.1185 35.0068C63.5245 34.5668 63.7276 33.9915 63.7276 33.2809V32.0964H67.6193ZM116.675 39V13.6193H127.081V17.511H120.567V26.3942H126.167V30.2859H120.567V39H116.675Z" fill="#FF5547"/>
<path d="M76.4425 39H72.5508V13.6193H76.4425V39ZM82.7533 39V13.6193H85.7652L92.2627 31.4704L91.2136 31.5211V13.6193H94.8515V39H91.8566L85.3422 21.132L86.3913 21.0812V39H82.7533ZM111.558 13.6193V17.511H105.043V23.8562H110.644V27.7479H105.043V35.1083H111.558V39H101.152V13.6193H111.558ZM135.495 39H131.603V13.6193H135.495V39ZM145.698 13.6193V35.1083H151.535V39H141.806V13.6193H145.698ZM166.182 13.6193V17.511H159.668V23.8562H165.268V27.7479H159.668V35.1083H166.182V39H155.776V13.6193H166.182Z" fill="white"/>
</svg>
